# xmcd
#
# Track frame offsets:
#	150
#	23509
#	41823
#	58009
#	70773
#	85421
#	96680
#	112619
#	126374
#	142031
#	154222
#	171136
#	180227
#	193240
#	218430
#
# Disc length: 3119 seconds
#
# Revision: 0
# Processed by: cddbd v1.5.1PL0 Copyright (c) Steve Scherf et al.
# Submitted via: dBpowerAMP V4.0
#
DISCID=d00c2d0f
DTITLE=Jessie Mae Hemphill - Get Right Blues
DYEAR=2003
DGENRE=Blues
TTITLE0=Streamline Train
TTITLE1=Shake Your Body (Shake It,Baby )
TTITLE2=Go Back to Your Used to Be
TTITLE3=Take Me Home With You,Baby
TTITLE4=Baby ,Please Don't Go
TTITLE5=Lord,Help the Poor and Needy
TTITLE6=Cowgirl Blues
TTITLE7=Little Rooster Reel
TTITLE8=He's a Mighty Good Leader
TTITLE9=All Night Boogie (Jessie Boogie )
TTITLE10=Loving In the Moonlight
TTITLE11=Get Right, Church
TTITLE12=Jessie Love Song (Tell Me You Love Me )
TTITLE13=Honey Bee
TTITLE14=Jesus Will Fix It for You
EXTD=Released by Inside Sounds (Memphis )
EXTT0=
EXTT1=
EXTT2=
EXTT3=
EXTT4=
EXTT5=
EXTT6=
EXTT7=
EXTT8=
EXTT9=
EXTT10=
EXTT11=
EXTT12=
EXTT13=
EXTT14=
PLAYORDER=
